HIERARCHY
ROOT Joint1
{
	OFFSET 0.000000 0.000000 0.000000
	CHANNELS 6 Xposition Yposition Zposition Xrotation Yrotation Zrotation
	JOINT Joint2
	{
		OFFSET -0.000000 0.000000 1.456275
		CHANNELS 6 Xposition Yposition Zposition Xrotation Yrotation Zrotation
		JOINT Joint3
		{
			OFFSET -0.000000 0.000002 1.471446
			CHANNELS 6 Xposition Yposition Zposition Xrotation Yrotation Zrotation
			JOINT Joint4
			{
				OFFSET 0.625745 0.000000 0.917755
				CHANNELS 6 Xposition Yposition Zposition Xrotation Yrotation Zrotation
				JOINT Joint5
				{
					OFFSET -0.629534 0.000001 0.940221
					CHANNELS 6 Xposition Yposition Zposition Xrotation Yrotation Zrotation
					JOINT Joint6
					{
						OFFSET -0.000001 0.113772 1.960660
						CHANNELS 6 Xposition Yposition Zposition Xrotation Yrotation Zrotation
						JOINT Joint7
						{
							OFFSET -0.669733 -0.113771 0.388340
							CHANNELS 6 Xposition Yposition Zposition Xrotation Yrotation Zrotation
							End Site
							{
								OFFSET 0.005509 0.005509 0.438980
							}
						}
					}
				}
			}
		}
	}
}
MOTION
Frames: 29
Frame Time: 0.041667
0.000000 0.000000 0.000000 -0.000000 1.019410 -0.030733 -0.000000 0.000000 1.456275 0.000000 -44.950943 0.000000 -0.000000 0.000002 1.471446 -0.000000 -1.133458 0.002617 0.625744 0.000000 0.917755 0.000004 135.031146 -0.000001 -0.629533 0.000001 0.940221 -0.000000 1.709736 0.012406 -0.000001 0.113772 1.960660 -88.312290 89.977531 -0.005880 -0.669733 -0.113771 0.388339 -0.705097 3.566198 134.959975 
0.000000 0.000000 0.000000 -0.000000 1.019410 -0.088747 -0.000000 -0.000000 1.456275 -0.000000 -44.844543 -0.000000 -0.000000 0.000002 1.471446 -0.000000 -1.133464 0.095065 0.625744 0.000000 0.917755 0.000004 135.046241 -0.000001 -0.629534 0.000001 0.940221 -0.000000 1.709736 0.109644 -0.000001 0.113772 1.960660 -88.323253 89.990222 -0.012768 -0.669733 -0.113771 0.388340 -0.704976 3.566198 134.953145 
0.000000 0.000000 0.000000 -0.000000 1.019410 -0.183542 -0.000000 0.000000 1.456275 0.000000 -44.670701 -0.000000 -0.000000 0.000002 1.471446 0.000000 -1.133461 0.246126 0.625744 0.000000 0.917755 0.000004 135.070898 -0.000001 -0.629533 0.000001 0.940221 -0.000000 1.709736 0.268532 -0.000001 0.113772 1.960661 -88.287852 90.010965 0.012715 -0.669733 -0.113771 0.388340 -0.704778 3.566198 134.941998 
0.000000 0.000000 0.000000 -0.000000 1.019410 -0.313568 -0.000000 0.000000 1.456275 0.000000 -44.432252 -0.000000 -0.000000 0.000002 1.471446 0.000000 -1.133461 0.453328 0.625744 0.000000 0.917755 0.000004 135.104734 -0.000001 -0.629534 0.000001 0.940221 -0.000000 1.709736 0.486469 -0.000001 0.113772 1.960661 -88.299634 90.039406 0.003805 -0.669733 -0.113771 0.388340 -0.704506 3.566197 134.926685 
0.000000 0.000000 0.000000 -0.000000 1.019410 -0.477274 -0.000000 0.000000 1.456275 0.000000 -44.132028 0.000000 -0.000000 0.000002 1.471446 -0.000000 -1.133460 0.714201 0.625744 0.000000 0.917755 0.000004 135.147341 -0.000001 -0.629534 0.000001 0.940221 -0.000000 1.709737 0.760859 -0.000000 0.113772 1.960660 -88.301321 90.075217 0.001766 -0.669733 -0.113771 0.388340 -0.704164 3.566197 134.907410 
0.000000 0.000000 0.000000 -0.000000 1.019410 -0.673109 -0.000000 0.000000 1.456275 0.000000 -43.772889 -0.000000 -0.000000 0.000002 1.471446 0.000000 -1.133459 1.026273 0.625745 0.000000 0.917755 0.000003 135.198294 -0.000001 -0.629534 0.000001 0.940221 -0.000000 1.709736 1.089101 -0.000001 0.113772 1.960660 -88.302332 90.118062 0.001144 -0.669733 -0.113771 0.388340 -0.703754 3.566196 134.884352 
0.000000 0.000000 0.000000 -0.000000 1.019410 -0.899524 -0.000000 0.000000 1.456275 -0.000000 -43.357669 0.000000 -0.000001 0.000002 1.471446 -0.000000 -1.133461 1.387075 0.625744 0.000000 0.917755 0.000004 135.257198 -0.000001 -0.629533 0.000001 0.940221 -0.000000 1.709736 1.468598 -0.000000 0.113772 1.960661 -88.302700 90.167602 0.000844 -0.669733 -0.113771 0.388340 -0.703280 3.566195 134.857700 
0.000000 0.000000 0.000000 -0.000000 1.019410 -1.154967 -0.000000 0.000000 1.456275 0.000000 -42.889210 -0.000000 -0.000001 0.000002 1.471446 -0.000000 -1.133462 1.794136 0.625744 0.000000 0.917755 0.000003 135.323656 -0.000001 -0.629533 0.000001 0.940221 -0.000000 1.709736 1.896750 -0.000001 0.113772 1.960660 -88.303124 90.223486 0.000580 -0.669733 -0.113771 0.388341 -0.702747 3.566193 134.827634 
0.000000 0.000000 0.000000 -0.000000 1.019410 -1.437888 -0.000000 0.000000 1.456275 -0.000000 -42.370368 -0.000000 -0.000000 0.000002 1.471446 0.000000 -1.133458 2.244984 0.625744 0.000000 0.917755 0.000004 135.397271 -0.000001 -0.629534 0.000001 0.940221 -0.000000 1.709736 2.370958 -0.000001 0.113772 1.960660 -88.303281 90.285381 0.000453 -0.669733 -0.113771 0.388340 -0.702155 3.566191 134.794330 
0.000000 0.000000 0.000000 -0.000000 1.019410 -1.746738 -0.000000 -0.000000 1.456275 -0.000000 -41.803964 0.000000 -0.000000 0.000002 1.471446 0.000000 -1.133465 2.737150 0.625745 0.000000 0.917754 0.000003 135.477622 -0.000001 -0.629533 0.000001 0.940221 -0.000000 1.709736 2.888624 -0.000000 0.113772 1.960660 -88.303363 90.352953 0.000241 -0.669733 -0.113771 0.388339 -0.701509 3.566189 134.757952 
0.000000 0.000000 0.000000 -0.000000 1.019410 -2.079964 -0.000000 0.000000 1.456275 -0.000000 -41.192874 0.000000 -0.000000 0.000002 1.471446 0.000000 -1.133458 3.268161 0.625745 0.000000 0.917755 0.000003 135.564324 -0.000001 -0.629534 0.000001 0.940221 -0.000000 1.709737 3.447149 -0.000001 0.113772 1.960660 -88.303575 90.425865 0.000241 -0.669733 -0.113771 0.388340 -0.700812 3.566185 134.718733 
0.000000 0.000000 0.000000 -0.000000 1.019410 -2.436016 -0.000000 -0.000000 1.456275 -0.000000 -40.539905 0.000000 -0.000000 0.000002 1.471446 -0.000000 -1.133459 3.835546 0.625744 0.000000 0.917755 0.000004 135.656955 -0.000001 -0.629534 0.000001 0.940221 -0.000000 1.709737 4.043933 -0.000001 0.113772 1.960661 -88.303479 90.503763 0.000250 -0.669733 -0.113771 0.388339 -0.700067 3.566182 134.676796 
0.000000 0.000000 0.000000 -0.000000 1.019410 -2.813345 -0.000000 0.000000 1.456275 -0.000000 -39.847918 -0.000000 -0.000000 0.000002 1.471446 0.000000 -1.133463 4.436838 0.625745 0.000000 0.917755 0.000004 135.755132 -0.000001 -0.629534 0.000001 0.940221 -0.000000 1.709737 4.676379 -0.000000 0.113772 1.960660 -88.303657 90.586313 0.000266 -0.669733 -0.113771 0.388340 -0.699277 3.566177 134.632372 
0.000000 0.000000 0.000000 -0.000000 1.019410 -3.211226 -0.000000 0.000000 1.456275 -0.000000 -39.118249 -0.000000 -0.000000 0.000002 1.471446 -0.000000 -1.133457 5.070878 0.625745 0.000000 0.917755 0.000004 135.858651 -0.000001 -0.629534 0.000001 0.940221 -0.000000 1.709736 5.343271 -0.000001 0.113772 1.960660 -88.303554 90.673357 0.000238 -0.669733 -0.113771 0.388341 -0.698446 3.566172 134.585544 
0.000000 0.000000 0.000000 -0.000000 1.019410 -3.632235 -0.000000 0.000000 1.456275 -0.000000 -38.346164 0.000000 -0.000000 0.000002 1.471446 -0.000000 -1.133456 5.741775 0.625745 0.000000 0.917755 0.000003 135.968180 -0.000001 -0.629534 0.000001 0.940221 -0.000000 1.709736 6.048931 -0.000001 0.113772 1.960660 -88.303629 90.765469 0.000190 -0.669733 -0.113771 0.388340 -0.697566 3.566164 134.535971 
0.000000 0.000000 0.000000 -0.000000 1.019410 -4.079778 -0.000000 -0.000000 1.456275 0.000000 -37.525425 0.000000 -0.000000 0.000002 1.471445 0.000000 -1.133459 6.454956 0.625745 0.000000 0.917755 0.000004 136.084634 -0.000002 -0.629534 0.000001 0.940221 0.000000 1.709737 6.799064 -0.000001 0.113772 1.960661 -88.303670 90.863386 0.000171 -0.669733 -0.113771 0.388341 -0.696632 3.566156 134.483269 
0.000000 0.000000 0.000000 -0.000000 1.019410 -4.557258 -0.000000 -0.000000 1.456275 -0.000000 -36.649774 0.000001 -0.000000 0.000002 1.471446 -0.000000 -1.133463 7.215840 0.625744 0.000000 0.917754 0.000003 136.208862 -0.000001 -0.629534 0.000001 0.940221 -0.000000 1.709736 7.599374 -0.000001 0.113772 1.960660 -88.303636 90.967847 0.000166 -0.669733 -0.113771 0.388340 -0.695633 3.566147 134.427070 
0.000000 0.000000 0.000000 -0.000000 1.019410 -5.068078 -0.000000 0.000000 1.456275 -0.000000 -35.712986 -0.000000 -0.000001 0.000002 1.471446 -0.000000 -1.133459 8.029856 0.625745 0.000000 0.917755 0.000004 136.341777 -0.000001 -0.629533 0.000001 0.940221 -0.000000 1.709738 8.455565 -0.000001 0.113772 1.960661 -88.303759 91.079603 0.000186 -0.669733 -0.113771 0.388340 -0.694564 3.566136 134.366924 
0.000000 0.000000 0.000000 -0.000000 1.019410 -5.615641 -0.000000 -0.000000 1.456275 -0.000000 -34.708819 -0.000000 -0.000000 0.000002 1.471446 -0.000000 -1.133457 8.902422 0.625745 0.000000 0.917755 0.000004 136.484228 -0.000001 -0.629534 0.000001 0.940221 -0.000000 1.709738 9.373344 -0.000001 0.113772 1.960660 -88.303759 91.199404 0.000138 -0.669733 -0.113771 0.388339 -0.693421 3.566122 134.302447 
0.000000 0.000000 0.000000 -0.000000 1.019410 -6.206110 -0.000000 0.000000 1.456275 -0.000000 -33.625957 -0.000000 -0.000000 0.000002 1.471446 0.000000 -1.133463 9.843361 0.625744 0.000000 0.917755 0.000004 136.637852 -0.000001 -0.629534 0.000001 0.940221 0.000000 1.709737 10.363035 -0.000001 0.113772 1.960660 -88.303773 91.328590 0.000114 -0.669733 -0.113771 0.388340 -0.692183 3.566106 134.232943 
0.000000 0.000000 0.000000 -0.000000 1.019410 -6.856680 -0.000000 -0.000000 1.456275 -0.000000 -32.432880 0.000000 -0.000000 0.000002 1.471446 0.000000 -1.133462 10.880076 0.625744 0.000000 0.917755 0.000004 136.807132 -0.000001 -0.629534 0.000001 0.940221 0.000000 1.709735 11.453464 -0.000001 0.113772 1.960661 -88.303855 91.470918 0.000039 -0.669733 -0.113771 0.388339 -0.690825 3.566088 134.156363 
0.000000 0.000000 0.000000 -0.000000 1.019410 -7.587305 -0.000000 0.000000 1.456275 0.000000 -31.092992 0.000001 -0.000001 0.000002 1.471446 0.000000 -1.133459 12.044358 0.625745 0.000000 0.917755 0.000003 136.997216 -0.000001 -0.629534 0.000001 0.940221 -0.000000 1.709736 12.678073 -0.000001 0.113772 1.960660 -88.303814 91.630765 0.000111 -0.669733 -0.113771 0.388340 -0.689293 3.566064 134.070330 
0.000000 0.000000 0.000000 -0.000000 1.019410 -8.417935 -0.000000 0.000000 1.456275 -0.000000 -29.569706 0.000001 -0.000000 0.000002 1.471446 0.000000 -1.133460 13.368009 0.625745 0.000000 0.917755 0.000004 137.213337 -0.000001 -0.629534 0.000001 0.940221 -0.000000 1.709739 14.070308 -0.000001 0.113772 1.960660 -88.303807 91.812489 0.000064 -0.669733 -0.113771 0.388339 -0.687561 3.566035 133.972549 
0.000000 0.000000 0.000000 -0.000000 1.019410 -9.350409 -0.000000 -0.000000 1.456275 0.000000 -27.859648 0.000001 -0.000000 0.000002 1.471445 0.000000 -1.133460 14.853949 0.625745 0.000000 0.917755 0.000003 137.455945 -0.000001 -0.629534 0.000001 0.940221 0.000000 1.709736 15.633238 -0.000001 0.113772 1.960661 -88.303793 92.016493 0.000090 -0.669733 -0.113771 0.388340 -0.685607 3.565998 133.862760 
0.000000 0.000000 0.000000 -0.000000 1.019410 -10.314094 -0.000000 -0.000000 1.456275 0.000000 -26.092359 -0.000001 -0.000000 0.000002 1.471445 -0.000000 -1.133458 16.389621 0.625745 0.000000 0.917755 0.000004 137.706681 -0.000001 -0.629534 0.000001 0.940221 -0.000000 1.709740 17.248480 -0.000001 0.113772 1.960661 -88.303752 92.227327 0.000046 -0.669733 -0.113771 0.388341 -0.683595 3.565956 133.749311 
0.000000 0.000000 0.000000 -0.000000 1.019410 -11.220230 -0.000000 0.000000 1.456275 0.000001 -24.430595 -0.000001 -0.000000 0.000002 1.471445 -0.000001 -1.133457 17.833593 0.625745 0.000000 0.917755 0.000003 137.942432 -0.000001 -0.629534 0.000001 0.940221 -0.000000 1.709736 18.767268 -0.000001 0.113772 1.960661 -88.303814 92.425580 0.000049 -0.669733 -0.113771 0.388340 -0.681699 3.565913 133.642623 
0.000000 0.000000 0.000000 -0.000000 1.019410 -12.003952 -0.000000 0.000000 1.456275 0.000000 -22.993337 0.000001 -0.000000 0.000002 1.471446 -0.000000 -1.133457 19.082488 0.625744 0.000000 0.917755 0.000003 138.146341 -0.000001 -0.629534 0.000001 0.940220 0.000000 1.709736 20.080874 -0.000001 0.113772 1.960660 -88.303841 92.597045 0.000059 -0.669733 -0.113771 0.388340 -0.680060 3.565872 133.550347 
0.000000 0.000000 0.000000 -0.000000 1.019410 -12.695894 -0.000000 -0.000000 1.456275 0.000000 -21.724387 -0.000000 -0.000000 0.000002 1.471446 -0.000000 -1.133459 20.185128 0.625744 0.000000 0.917755 0.000004 138.326384 -0.000002 -0.629534 0.000001 0.940220 0.000000 1.709736 21.240650 -0.000001 0.113772 1.960661 -88.303793 92.748430 0.000022 -0.669733 -0.113771 0.388340 -0.678613 3.565834 133.468890 
0.000000 0.000000 0.000000 -0.000000 1.019410 -13.350582 -0.000000 -0.000000 1.456275 0.000000 -20.523764 -0.000000 -0.000000 0.000002 1.471446 -0.000000 -1.133457 21.228404 0.625744 0.000000 0.917755 0.000004 138.496716 -0.000001 -0.629534 0.000001 0.940221 0.000001 1.709733 22.337980 -0.000001 0.113772 1.960660 -88.303759 92.891666 0.000044 -0.669733 -0.113771 0.388340 -0.677249 3.565796 133.391819 
